<svg width="32" height="32" viewBox="0 0 32 32" fill="none" xmlns="http://www.w3.org/2000/svg">
<rect width="32" height="32" fill="black"/>
<path d="M17.32 10.424V11.864H24.256V10.424H17.32ZM14.824 21.584V23.12H26.92V21.584H14.824ZM17.632 19.472V21.656C17.632 23.24 17.2 25.376 14.272 26.864C14.632 27.104 15.184 27.608 15.448 27.944C18.64 26.288 19.216 23.696 19.216 21.68V19.472H17.632ZM22.504 19.472V27.92H24.064V19.472H22.504ZM17.536 14.72H23.848V17.384H17.536V14.72ZM16 13.28V18.8H25.48V13.28H16ZM20.512 5.672C19.192 7.76 16.672 9.752 14.296 10.88C14.68 11.192 15.088 11.72 15.328 12.08C17.824 10.784 20.32 8.6 21.832 6.248L20.512 5.672ZM21.016 6.44L19.72 7.064C21.568 9.224 23.656 10.688 26.032 11.936C26.248 11.48 26.704 10.904 27.112 10.544C24.808 9.56 22.696 8.336 21.016 6.44ZM5.056 8.072V9.584H14.488V8.072H5.056ZM4.936 22.208V23.768H14.2V22.208H4.936ZM8.992 12.2V15.08H10.504V12.2H8.992ZM9.088 15.224V19.616H8.992V27.992H10.48V19.616H10.384V15.224H9.088ZM7.048 5.888V12.896H12.52V5.888H11.08V11.456H8.44V5.888H7.048ZM7.192 15.896H12.328V18.848H7.192V15.896ZM5.824 14.504V20.264H13.72V14.504H5.824Z" fill="white"/>
</svg>
